<?xml version="1.0" encoding="UTF-8" standalone="no"?>
<!DOCTYPE svg PUBLIC "-//W3C//DTD SVG 1.1//EN"
 "http://www.w3.org/Graphics/SVG/1.1/DTD/svg11.dtd">
<!-- Generated by graphviz version 10.0.1 (20240210.2158)
 -->
<!-- Title: ArvoreBin Pages: 1 -->
<svg width="314pt" height="260pt"
 viewBox="0.00 0.00 314.00 260.00" xmlns="http://www.w3.org/2000/svg" xmlns:xlink="http://www.w3.org/1999/xlink">
<g id="graph0" class="graph" transform="scale(1 1) rotate(0) translate(4 256)">
<title>ArvoreBin</title>
<polygon fill="white" stroke="none" points="-4,4 -4,-256 310,-256 310,4 -4,4"/>
<!-- 8 -->
<g id="node1" class="node">
<title>8</title>
<ellipse fill="none" stroke="black" cx="135" cy="-234" rx="27" ry="18"/>
<text text-anchor="middle" x="135" y="-228.57" font-family="Times New Roman,serif" font-size="14.00">8</text>
</g>
<!-- 4 -->
<g id="node2" class="node">
<title>4</title>
<ellipse fill="none" stroke="black" cx="99" cy="-162" rx="27" ry="18"/>
<text text-anchor="middle" x="99" y="-156.57" font-family="Times New Roman,serif" font-size="14.00">4</text>
</g>
<!-- 8&#45;&gt;4 -->
<g id="edge1" class="edge">
<title>8&#45;&gt;4</title>
<path fill="none" stroke="black" d="M126.65,-216.76C122.42,-208.55 117.19,-198.37 112.42,-189.09"/>
<polygon fill="black" stroke="black" points="115.68,-187.79 108,-180.49 109.46,-190.99 115.68,-187.79"/>
</g>
<!-- 12 -->
<g id="node3" class="node">
<title>12</title>
<ellipse fill="none" stroke="black" cx="171" cy="-162" rx="27" ry="18"/>
<text text-anchor="middle" x="171" y="-156.57" font-family="Times New Roman,serif" font-size="14.00">12</text>
</g>
<!-- 8&#45;&gt;12 -->
<g id="edge2" class="edge">
<title>8&#45;&gt;12</title>
<path fill="none" stroke="black" d="M143.35,-216.76C147.58,-208.55 152.81,-198.37 157.58,-189.09"/>
<polygon fill="black" stroke="black" points="160.54,-190.99 162,-180.49 154.32,-187.79 160.54,-190.99"/>
</g>
<!-- 2 -->
<g id="node4" class="node">
<title>2</title>
<ellipse fill="none" stroke="black" cx="27" cy="-90" rx="27" ry="18"/>
<text text-anchor="middle" x="27" y="-84.58" font-family="Times New Roman,serif" font-size="14.00">2</text>
</g>
<!-- 4&#45;&gt;2 -->
<g id="edge3" class="edge">
<title>4&#45;&gt;2</title>
<path fill="none" stroke="black" d="M84.08,-146.5C74.23,-136.92 61.14,-124.19 49.97,-113.34"/>
<polygon fill="black" stroke="black" points="52.59,-111 42.98,-106.54 47.71,-116.02 52.59,-111"/>
</g>
<!-- 6 -->
<g id="node5" class="node">
<title>6</title>
<ellipse fill="none" stroke="black" cx="99" cy="-90" rx="27" ry="18"/>
<text text-anchor="middle" x="99" y="-84.58" font-family="Times New Roman,serif" font-size="14.00">6</text>
</g>
<!-- 4&#45;&gt;6 -->
<g id="edge4" class="edge">
<title>4&#45;&gt;6</title>
<path fill="none" stroke="black" d="M99,-143.7C99,-136.41 99,-127.73 99,-119.54"/>
<polygon fill="black" stroke="black" points="102.5,-119.62 99,-109.62 95.5,-119.62 102.5,-119.62"/>
</g>
<!-- 10 -->
<g id="node6" class="node">
<title>10</title>
<ellipse fill="none" stroke="black" cx="171" cy="-90" rx="27" ry="18"/>
<text text-anchor="middle" x="171" y="-84.58" font-family="Times New Roman,serif" font-size="14.00">10</text>
</g>
<!-- 12&#45;&gt;10 -->
<g id="edge5" class="edge">
<title>12&#45;&gt;10</title>
<path fill="none" stroke="black" d="M171,-143.7C171,-136.41 171,-127.73 171,-119.54"/>
<polygon fill="black" stroke="black" points="174.5,-119.62 171,-109.62 167.5,-119.62 174.5,-119.62"/>
</g>
<!-- 16 -->
<g id="node7" class="node">
<title>16</title>
<ellipse fill="none" stroke="black" cx="243" cy="-90" rx="27" ry="18"/>
<text text-anchor="middle" x="243" y="-84.58" font-family="Times New Roman,serif" font-size="14.00">16</text>
</g>
<!-- 12&#45;&gt;16 -->
<g id="edge6" class="edge">
<title>12&#45;&gt;16</title>
<path fill="none" stroke="black" d="M185.92,-146.5C195.77,-136.92 208.86,-124.19 220.03,-113.34"/>
<polygon fill="black" stroke="black" points="222.29,-116.02 227.02,-106.54 217.41,-111 222.29,-116.02"/>
</g>
<!-- 14 -->
<g id="node8" class="node">
<title>14</title>
<ellipse fill="none" stroke="black" cx="207" cy="-18" rx="27" ry="18"/>
<text text-anchor="middle" x="207" y="-12.57" font-family="Times New Roman,serif" font-size="14.00">14</text>
</g>
<!-- 16&#45;&gt;14 -->
<g id="edge7" class="edge">
<title>16&#45;&gt;14</title>
<path fill="none" stroke="black" d="M234.65,-72.76C230.42,-64.55 225.19,-54.37 220.42,-45.09"/>
<polygon fill="black" stroke="black" points="223.68,-43.79 216,-36.49 217.46,-46.99 223.68,-43.79"/>
</g>
<!-- 20 -->
<g id="node9" class="node">
<title>20</title>
<ellipse fill="none" stroke="black" cx="279" cy="-18" rx="27" ry="18"/>
<text text-anchor="middle" x="279" y="-12.57" font-family="Times New Roman,serif" font-size="14.00">20</text>
</g>
<!-- 16&#45;&gt;20 -->
<g id="edge8" class="edge">
<title>16&#45;&gt;20</title>
<path fill="none" stroke="black" d="M251.35,-72.76C255.58,-64.55 260.81,-54.37 265.58,-45.09"/>
<polygon fill="black" stroke="black" points="268.54,-46.99 270,-36.49 262.32,-43.79 268.54,-46.99"/>
</g>
</g>
</svg>
