<?xml version="1.0" encoding="UTF-8" standalone="no"?>
<!DOCTYPE svg PUBLIC "-//W3C//DTD SVG 1.1//EN"
 "http://www.w3.org/Graphics/SVG/1.1/DTD/svg11.dtd">
<!-- Generated by graphviz version 10.0.1 (20240210.2158)
 -->
<!-- Title: ArvoreBin Pages: 1 -->
<svg width="170pt" height="404pt"
 viewBox="0.00 0.00 170.00 404.00" xmlns="http://www.w3.org/2000/svg" xmlns:xlink="http://www.w3.org/1999/xlink">
<g id="graph0" class="graph" transform="scale(1 1) rotate(0) translate(4 400)">
<title>ArvoreBin</title>
<polygon fill="white" stroke="none" points="-4,4 -4,-400 166,-400 166,4 -4,4"/>
<!-- 10 -->
<g id="node1" class="node">
<title>10</title>
<ellipse fill="none" stroke="black" cx="63" cy="-378" rx="27" ry="18"/>
<text text-anchor="middle" x="63" y="-372.57" font-family="Times New Roman,serif" font-size="14.00">10</text>
</g>
<!-- 9 -->
<g id="node2" class="node">
<title>9</title>
<ellipse fill="none" stroke="black" cx="27" cy="-306" rx="27" ry="18"/>
<text text-anchor="middle" x="27" y="-300.57" font-family="Times New Roman,serif" font-size="14.00">9</text>
</g>
<!-- 10&#45;&gt;9 -->
<g id="edge1" class="edge">
<title>10&#45;&gt;9</title>
<path fill="none" stroke="black" d="M54.65,-360.76C50.42,-352.55 45.19,-342.37 40.42,-333.09"/>
<polygon fill="black" stroke="black" points="43.68,-331.79 36,-324.49 37.46,-334.99 43.68,-331.79"/>
</g>
<!-- 13 -->
<g id="node3" class="node">
<title>13</title>
<ellipse fill="none" stroke="black" cx="99" cy="-306" rx="27" ry="18"/>
<text text-anchor="middle" x="99" y="-300.57" font-family="Times New Roman,serif" font-size="14.00">13</text>
</g>
<!-- 10&#45;&gt;13 -->
<g id="edge2" class="edge">
<title>10&#45;&gt;13</title>
<path fill="none" stroke="black" d="M71.35,-360.76C75.58,-352.55 80.81,-342.37 85.58,-333.09"/>
<polygon fill="black" stroke="black" points="88.54,-334.99 90,-324.49 82.32,-331.79 88.54,-334.99"/>
</g>
<!-- 1 -->
<g id="node4" class="node">
<title>1</title>
<ellipse fill="none" stroke="black" cx="27" cy="-234" rx="27" ry="18"/>
<text text-anchor="middle" x="27" y="-228.57" font-family="Times New Roman,serif" font-size="14.00">1</text>
</g>
<!-- 9&#45;&gt;1 -->
<g id="edge3" class="edge">
<title>9&#45;&gt;1</title>
<path fill="none" stroke="black" d="M27,-287.7C27,-280.41 27,-271.73 27,-263.54"/>
<polygon fill="black" stroke="black" points="30.5,-263.62 27,-253.62 23.5,-263.62 30.5,-263.62"/>
</g>
<!-- 22 -->
<g id="node5" class="node">
<title>22</title>
<ellipse fill="none" stroke="black" cx="99" cy="-234" rx="27" ry="18"/>
<text text-anchor="middle" x="99" y="-228.57" font-family="Times New Roman,serif" font-size="14.00">22</text>
</g>
<!-- 13&#45;&gt;22 -->
<g id="edge4" class="edge">
<title>13&#45;&gt;22</title>
<path fill="none" stroke="black" d="M99,-287.7C99,-280.41 99,-271.73 99,-263.54"/>
<polygon fill="black" stroke="black" points="102.5,-263.62 99,-253.62 95.5,-263.62 102.5,-263.62"/>
</g>
<!-- 17 -->
<g id="node6" class="node">
<title>17</title>
<ellipse fill="none" stroke="black" cx="63" cy="-162" rx="27" ry="18"/>
<text text-anchor="middle" x="63" y="-156.57" font-family="Times New Roman,serif" font-size="14.00">17</text>
</g>
<!-- 22&#45;&gt;17 -->
<g id="edge5" class="edge">
<title>22&#45;&gt;17</title>
<path fill="none" stroke="black" d="M90.65,-216.76C86.42,-208.55 81.19,-198.37 76.42,-189.09"/>
<polygon fill="black" stroke="black" points="79.68,-187.79 72,-180.49 73.46,-190.99 79.68,-187.79"/>
</g>
<!-- 30 -->
<g id="node7" class="node">
<title>30</title>
<ellipse fill="none" stroke="black" cx="135" cy="-162" rx="27" ry="18"/>
<text text-anchor="middle" x="135" y="-156.57" font-family="Times New Roman,serif" font-size="14.00">30</text>
</g>
<!-- 22&#45;&gt;30 -->
<g id="edge6" class="edge">
<title>22&#45;&gt;30</title>
<path fill="none" stroke="black" d="M107.35,-216.76C111.58,-208.55 116.81,-198.37 121.58,-189.09"/>
<polygon fill="black" stroke="black" points="124.54,-190.99 126,-180.49 118.32,-187.79 124.54,-190.99"/>
</g>
<!-- 20 -->
<g id="node8" class="node">
<title>20</title>
<ellipse fill="none" stroke="black" cx="63" cy="-90" rx="27" ry="18"/>
<text text-anchor="middle" x="63" y="-84.58" font-family="Times New Roman,serif" font-size="14.00">20</text>
</g>
<!-- 17&#45;&gt;20 -->
<g id="edge7" class="edge">
<title>17&#45;&gt;20</title>
<path fill="none" stroke="black" d="M63,-143.7C63,-136.41 63,-127.73 63,-119.54"/>
<polygon fill="black" stroke="black" points="66.5,-119.62 63,-109.62 59.5,-119.62 66.5,-119.62"/>
</g>
<!-- 24 -->
<g id="node10" class="node">
<title>24</title>
<ellipse fill="none" stroke="black" cx="135" cy="-90" rx="27" ry="18"/>
<text text-anchor="middle" x="135" y="-84.58" font-family="Times New Roman,serif" font-size="14.00">24</text>
</g>
<!-- 30&#45;&gt;24 -->
<g id="edge9" class="edge">
<title>30&#45;&gt;24</title>
<path fill="none" stroke="black" d="M135,-143.7C135,-136.41 135,-127.73 135,-119.54"/>
<polygon fill="black" stroke="black" points="138.5,-119.62 135,-109.62 131.5,-119.62 138.5,-119.62"/>
</g>
<!-- 19 -->
<g id="node9" class="node">
<title>19</title>
<ellipse fill="none" stroke="black" cx="63" cy="-18" rx="27" ry="18"/>
<text text-anchor="middle" x="63" y="-12.57" font-family="Times New Roman,serif" font-size="14.00">19</text>
</g>
<!-- 20&#45;&gt;19 -->
<g id="edge8" class="edge">
<title>20&#45;&gt;19</title>
<path fill="none" stroke="black" d="M63,-71.7C63,-64.41 63,-55.73 63,-47.54"/>
<polygon fill="black" stroke="black" points="66.5,-47.62 63,-37.62 59.5,-47.62 66.5,-47.62"/>
</g>
</g>
</svg>
